# xmcd
#
# Track frame offsets:
#	150
#	14122
#	19622
#	37695
#	43827
#	47217
#	67685
#	88087
#	93695
#	106937
#	134090
#	149600
#	170722
#	187750
#	199447
#	212485
#	222255
#	240557
#	254442
#	263317
#	276587
#
# Disc length: 4094 seconds
#
# Revision: 1
# Processed by: cddbd v1.5.1PL0 Copyright (c) Steve Scherf et al.
# Submitted via: CDex 1.50Beta5
#
DISCID=3b0ffc15
DTITLE=秋月こお - 富士見交響楽団シリーズ3 さまよえるバイオリニスト
DYEAR=1900
DGENRE=
TTITLE0=オープニング
TTITLE1=酒屋
TTITLE2=道
TTITLE3=某ホテルのフロント
TTITLE4=警察署
TTITLE5=道
TTITLE6=桐ノ院のマンション・A
TTITLE7=桐ノ院のマンション・B
TTITLE8=桐ノ院の部屋・A
TTITLE9=桐ノ院の部屋・B
TTITLE10=桐ノ院の部屋・C
TTITLE11=桐ノ院の部屋・D
TTITLE12=市民センター大会議室・フジミのリハーサル・A
TTITLE13=市民センター大会議室・フジミのリハーサル・B
TTITLE14=五十嵐のアパート・A
TTITLE15=五十嵐のアパート・B
TTITLE16=五十嵐のアパート・C
TTITLE17=桐ノ院のマンション・E
TTITLE18=不動産屋
TTITLE19=喫茶モーツァルト
TTITLE20=桐ノ院のマンション・F
EXTD=
EXTT0=
EXTT1=
EXTT2=
EXTT3=
EXTT4=
EXTT5=
EXTT6=
EXTT7=
EXTT8=
EXTT9=
EXTT10=
EXTT11=
EXTT12=
EXTT13=
EXTT14=
EXTT15=
EXTT16=
EXTT17=
EXTT18=
EXTT19=
EXTT20=
PLAYORDER=
